<svg xmlns="http://www.w3.org/2000/svg" xmlns:xlink="http://www.w3.org/1999/xlink" version="1.1" x="0px" y="0px" viewBox="0 0 100 125" enable-background="new 0 0 100 100" xml:space="preserve"><path d="M84.448,39.561c-3.291,0-6.233,1.515-8.17,3.883l-9.922-6.56c0.774-1.467,1.214-3.135,1.214-4.906  c0-5.819-4.734-10.552-10.552-10.552c-3.968,0-7.431,2.203-9.232,5.449l-22.141-5.194c0.297-0.974,0.459-2.007,0.459-3.077  c0-5.818-4.734-10.552-10.552-10.552S5,12.786,5,18.605s4.734,10.552,10.552,10.552c2.029,0,3.925-0.577,5.536-1.574L33.087,41.29  l-8.344,3.649c-1.812-3.207-5.252-5.378-9.191-5.378C9.734,39.561,5,44.295,5,50.113s4.734,10.552,10.552,10.552  c3.956,0,7.408-2.189,9.214-5.418l8.431,3.653L21.364,72.594c-1.668-1.105-3.666-1.751-5.812-1.751C9.734,70.843,5,75.577,5,81.395  c0,5.819,4.734,10.552,10.552,10.552s10.552-4.734,10.552-10.552c0-1.074-0.162-2.111-0.462-3.088L47.78,73.15  c1.8,3.252,5.265,5.459,9.238,5.459c5.818,0,10.552-4.734,10.552-10.552c0-1.752-0.432-3.404-1.191-4.86l9.867-6.455  c1.936,2.391,4.893,3.923,8.202,3.923C90.266,60.665,95,55.932,95,50.113S90.266,39.561,84.448,39.561z M57.018,23.542  c4.652,0,8.437,3.785,8.437,8.437c0,4.652-3.785,8.437-8.437,8.437s-8.437-3.785-8.437-8.437  C48.581,27.327,52.366,23.542,57.018,23.542z M49.809,39.674l-7.613,8.811l-5.615-6.414l11.246-4.918  C48.357,38.092,49.027,38.942,49.809,39.674z M7.115,18.605c0-4.652,3.785-8.437,8.437-8.437s8.437,3.785,8.437,8.437  s-3.785,8.437-8.437,8.437S7.115,23.257,7.115,18.605z M22.769,26.293c0.812-0.762,1.505-1.65,2.044-2.634L46.94,28.85  c-0.308,0.989-0.474,2.04-0.474,3.129c0,1.129,0.18,2.216,0.51,3.237l-11.856,5.185L22.769,26.293z M15.552,58.55  c-4.652,0-8.437-3.785-8.437-8.437s3.785-8.437,8.437-8.437s8.437,3.785,8.437,8.437S20.204,58.55,15.552,58.55z M25.609,53.307  c0.321-1.008,0.495-2.081,0.495-3.193c0-1.129-0.18-2.217-0.51-3.237l8.954-3.916l6.251,7.141l-6.154,7.122L25.609,53.307z   M47.803,62.924l-11.123-4.82l5.527-6.396l7.588,8.668C49.008,61.116,48.334,61.974,47.803,62.924z M15.552,89.832  c-4.652,0-8.437-3.785-8.437-8.437c0-4.652,3.785-8.437,8.437-8.437s8.437,3.785,8.437,8.437  C23.989,86.047,20.204,89.832,15.552,89.832z M24.806,76.33c-0.486-0.884-1.094-1.692-1.802-2.399l12.227-14.15l11.73,5.083  c-0.321,1.008-0.495,2.08-0.495,3.193c0,1.085,0.165,2.132,0.47,3.118L24.806,76.33z M57.018,76.494  c-4.652,0-8.437-3.785-8.437-8.437c0-4.652,3.785-8.437,8.437-8.437s8.437,3.785,8.437,8.437  C65.455,72.709,61.67,76.494,57.018,76.494z M65.22,61.428c-1.936-2.391-4.893-3.923-8.202-3.923c-2.033,0-3.932,0.579-5.544,1.579  l-7.871-8.992l7.888-9.129c1.609,0.993,3.502,1.568,5.527,1.568c3.291,0,6.234-1.515,8.17-3.883l9.922,6.56  c-0.774,1.467-1.214,3.135-1.214,4.906c0,1.752,0.432,3.404,1.191,4.86L65.22,61.428z M84.448,58.55  c-4.652,0-8.437-3.785-8.437-8.437s3.785-8.437,8.437-8.437c4.652,0,8.437,3.785,8.437,8.437S89.1,58.55,84.448,58.55z"/><text x="0" y="115" fill="#000000" font-size="5px" font-weight="bold" font-family="'Helvetica Neue', Helvetica, Arial-Unicode, Arial, Sans-serif">Created by Laymik</text><text x="0" y="120" fill="#000000" font-size="5px" font-weight="bold" font-family="'Helvetica Neue', Helvetica, Arial-Unicode, Arial, Sans-serif">from the Noun Project</text></svg>