<svg xmlns="http://www.w3.org/2000/svg" xmlns:xlink="http://www.w3.org/1999/xlink" xml:space="preserve" version="1.1" style="shape-rendering:geometricPrecision;text-rendering:geometricPrecision;image-rendering:optimizeQuality;" viewBox="0 0 105833.32 132291.65000000002" x="0px" y="0px" fill-rule="evenodd" clip-rule="evenodd"><defs><style type="text/css">
   
    .fil0 {fill:black;fill-rule:nonzero}
   
  </style></defs><g><path class="fil0" d="M3931.51 8937.52l10396.33 -5910.4c2742.22,-1558.95 4880.66,-1284.42 4880.66,1835.13l0 96623.44c0,2995.6 -2888.21,2604.04 -5091.92,1100.64l-10476.15 -7146.94c-2372.25,-1618.37 -2562.53,-2731.88 -2562.25,-5229.08l-2.49 0 0 -77148.95c0,-2094.04 136.95,-2591.87 2855.82,-4123.84zm86724.2 53016.14c301.59,0 546.07,378.69 546.07,845.84 0,467.14 -244.48,845.83 -546.07,845.83 -301.59,0 -546.08,-378.69 -546.08,-845.83 0,-467.15 244.49,-845.84 546.08,-845.84zm2328.58 1068.91c301.6,0 546.08,378.69 546.08,845.84 0,467.15 -244.48,845.84 -546.08,845.84 -301.57,0 -546.07,-378.69 -546.07,-845.84 0,-467.15 244.5,-845.84 546.07,-845.84zm2328.59 1068.93c301.61,0 546.08,378.69 546.08,845.84 0,467.14 -244.47,845.83 -546.08,845.83 -301.59,0 -546.07,-378.69 -546.07,-845.83 0,-467.15 244.48,-845.84 546.07,-845.84zm2328.61 1068.92c301.6,0 546.08,378.69 546.08,845.83 0,467.16 -244.48,845.84 -546.08,845.84 -301.59,0 -546.08,-378.68 -546.08,-845.84 0,-467.14 244.49,-845.83 546.08,-845.83zm-6985.78 -8318.64c301.59,0 546.07,378.69 546.07,845.84 0,467.15 -244.48,845.83 -546.07,845.83 -301.59,0 -546.08,-378.68 -546.08,-845.83 0,-467.15 244.49,-845.84 546.08,-845.84zm2328.58 593.97c301.6,0 546.08,378.69 546.08,845.85 0,467.14 -244.48,845.84 -546.08,845.84 -301.57,0 -546.07,-378.7 -546.07,-845.84 0,-467.16 244.5,-845.85 546.07,-845.85zm2328.59 593.97c301.61,0 546.08,378.72 546.08,845.85 0,467.14 -244.47,845.82 -546.08,845.82 -301.59,0 -546.07,-378.68 -546.07,-845.82 0,-467.13 244.48,-845.85 546.07,-845.85zm2328.61 593.98c301.6,0 546.08,378.71 546.08,845.84 0,467.14 -244.48,845.84 -546.08,845.84 -301.59,0 -546.08,-378.7 -546.08,-845.84 0,-467.13 244.49,-845.84 546.08,-845.84zm-6985.78 -6917.72c301.59,0 546.07,378.7 546.07,845.84 0,467.14 -244.48,845.84 -546.07,845.84 -301.59,0 -546.08,-378.7 -546.08,-845.84 0,-467.14 244.49,-845.84 546.08,-845.84zm2328.58 90.84c301.6,0 546.08,378.68 546.08,845.84 0,467.14 -244.48,845.83 -546.08,845.83 -301.57,0 -546.07,-378.69 -546.07,-845.83 0,-467.16 244.5,-845.84 546.07,-845.84zm2328.59 90.84c301.61,0 546.08,378.68 546.08,845.84 0,467.14 -244.47,845.82 -546.08,845.82 -301.59,0 -546.07,-378.68 -546.07,-845.82 0,-467.16 244.48,-845.84 546.07,-845.84zm2328.61 90.85c301.6,0 546.08,378.69 546.08,845.83 0,467.14 -244.48,845.85 -546.08,845.85 -301.59,0 -546.08,-378.71 -546.08,-845.85 0,-467.14 244.49,-845.83 546.08,-845.83zm-6985.78 -5489.48c301.59,0 546.07,378.68 546.07,845.84 0,467.14 -244.48,845.83 -546.07,845.83 -301.59,0 -546.08,-378.69 -546.08,-845.83 0,-467.16 244.49,-845.84 546.08,-845.84zm2328.58 -384.37c301.6,0 546.08,378.69 546.08,845.83 0,467.14 -244.48,845.83 -546.08,845.83 -301.57,0 -546.07,-378.69 -546.07,-845.83 0,-467.14 244.5,-845.83 546.07,-845.83zm2328.59 -384.37c301.61,0 546.08,378.7 546.08,845.85 0,467.14 -244.47,845.83 -546.08,845.83 -301.59,0 -546.07,-378.69 -546.07,-845.83 0,-467.15 244.48,-845.85 546.07,-845.85zm2328.61 -384.37c301.6,0 546.08,378.71 546.08,845.85 0,467.14 -244.48,845.83 -546.08,845.83 -301.59,0 -546.08,-378.69 -546.08,-845.83 0,-467.14 244.49,-845.85 546.08,-845.85zm2328.58 20893.42c301.59,0 546.08,378.68 546.08,845.84 0,467.14 -244.49,845.84 -546.08,845.84 -301.58,0 -546.07,-378.7 -546.07,-845.84 0,-467.16 244.49,-845.84 546.07,-845.84zm0 -7011.65c301.59,0 546.08,378.69 546.08,845.83 0,467.15 -244.49,845.84 -546.08,845.84 -301.58,0 -546.07,-378.69 -546.07,-845.84 0,-467.14 244.49,-845.83 546.07,-845.83zm0 -7148.35c301.59,0 546.08,378.69 546.08,845.84 0,467.14 -244.49,845.83 -546.08,845.83 -301.58,0 -546.07,-378.69 -546.07,-845.83 0,-467.15 244.49,-845.84 546.07,-845.84zm0 -7117.78c301.59,0 546.08,378.69 546.08,845.83 0,467.15 -244.49,845.84 -546.08,845.84 -301.58,0 -546.07,-378.69 -546.07,-845.84 0,-467.14 244.49,-845.83 546.07,-845.83zm0 -7073.33c301.59,0 546.08,378.69 546.08,845.83 0,467.15 -244.49,845.84 -546.08,845.84 -301.58,0 -546.07,-378.69 -546.07,-845.84 0,-467.14 244.49,-845.83 546.07,-845.83zm-2328.58 857.02c301.6,0 546.08,378.69 546.08,845.84 0,467.14 -244.48,845.82 -546.08,845.82 -301.59,0 -546.08,-378.68 -546.08,-845.82 0,-467.15 244.49,-845.84 546.08,-845.84zm-2328.59 857c301.6,0 546.07,378.69 546.07,845.82 0,467.15 -244.47,845.85 -546.07,845.85 -301.59,0 -546.07,-378.7 -546.07,-845.85 0,-467.13 244.48,-845.82 546.07,-845.82zm-2328.61 857.02c301.6,0 546.08,378.69 546.08,845.84 0,467.14 -244.48,845.84 -546.08,845.84 -301.57,0 -546.07,-378.7 -546.07,-845.84 0,-467.15 244.5,-845.84 546.07,-845.84zm-2328.58 857.02c301.59,0 546.07,378.69 546.07,845.83 0,467.15 -244.48,845.84 -546.07,845.84 -301.59,0 -546.08,-378.69 -546.08,-845.84 0,-467.14 244.49,-845.83 546.08,-845.83zm-17509.36 32602.67c301.59,0 546.08,378.68 546.08,845.82 0,467.16 -244.49,845.84 -546.08,845.84 -301.6,0 -546.09,-378.68 -546.09,-845.84 0,-467.14 244.49,-845.82 546.09,-845.82zm-2560.69 -1212.37c301.6,0 546.1,378.71 546.1,845.84 0,467.14 -244.5,845.84 -546.1,845.84 -301.57,0 -546.06,-378.7 -546.06,-845.84 0,-467.13 244.49,-845.84 546.06,-845.84zm-2560.65 -1212.36c301.57,0 546.08,378.71 546.08,845.85 0,467.13 -244.51,845.82 -546.08,845.82 -301.6,0 -546.09,-378.69 -546.09,-845.82 0,-467.14 244.49,-845.85 546.09,-845.85zm-2560.68 -1212.36c301.59,0 546.09,378.69 546.09,845.83 0,467.16 -244.5,845.84 -546.09,845.84 -301.59,0 -546.09,-378.68 -546.09,-845.84 0,-467.14 244.5,-845.83 546.09,-845.83zm7682.02 -5246.4c301.59,0 546.08,378.7 546.08,845.84 0,467.14 -244.49,845.84 -546.08,845.84 -301.6,0 -546.09,-378.7 -546.09,-845.84 0,-467.14 244.49,-845.84 546.09,-845.84zm-2560.69 -819.14c301.6,0 546.1,378.68 546.1,845.83 0,467.15 -244.5,845.84 -546.1,845.84 -301.57,0 -546.06,-378.69 -546.06,-845.84 0,-467.15 244.49,-845.83 546.06,-845.83zm-2560.65 -819.13c301.57,0 546.08,378.68 546.08,845.84 0,467.15 -244.51,845.83 -546.08,845.83 -301.6,0 -546.09,-378.68 -546.09,-845.83 0,-467.16 244.49,-845.84 546.09,-845.84zm-2560.68 -819.16c301.59,0 546.09,378.69 546.09,845.84 0,467.15 -244.5,845.84 -546.09,845.84 -301.59,0 -546.09,-378.69 -546.09,-845.84 0,-467.15 244.5,-845.84 546.09,-845.84zm7682.02 -6402.65c301.59,0 546.08,378.69 546.08,845.83 0,467.15 -244.49,845.84 -546.08,845.84 -301.6,0 -546.09,-378.69 -546.09,-845.84 0,-467.14 244.49,-845.83 546.09,-845.83zm-2560.69 -317.23c301.6,0 546.1,378.69 546.1,845.85 0,467.14 -244.5,845.82 -546.1,845.82 -301.57,0 -546.06,-378.68 -546.06,-845.82 0,-467.16 244.49,-845.85 546.06,-845.85zm-2560.65 -317.21c301.57,0 546.08,378.68 546.08,845.84 0,467.15 -244.51,845.83 -546.08,845.83 -301.6,0 -546.09,-378.68 -546.09,-845.83 0,-467.16 244.49,-845.84 546.09,-845.84zm-2560.68 -317.22c301.59,0 546.09,378.68 546.09,845.83 0,467.14 -244.5,845.84 -546.09,845.84 -301.59,0 -546.09,-378.7 -546.09,-845.84 0,-467.15 244.5,-845.83 546.09,-845.83zm7682.02 -7922.13c301.59,0 546.08,378.68 546.08,845.84 0,467.14 -244.49,845.82 -546.08,845.82 -301.6,0 -546.09,-378.68 -546.09,-845.82 0,-467.16 244.49,-845.84 546.09,-845.84zm-2560.69 146.08c301.6,0 546.1,378.69 546.1,845.85 0,467.14 -244.5,845.83 -546.1,845.83 -301.57,0 -546.06,-378.69 -546.06,-845.83 0,-467.16 244.49,-845.85 546.06,-845.85zm-2560.65 146.07c301.57,0 546.08,378.7 546.08,845.84 0,467.15 -244.51,845.84 -546.08,845.84 -301.6,0 -546.09,-378.69 -546.09,-845.84 0,-467.14 244.49,-845.84 546.09,-845.84zm-2560.68 146.09c301.59,0 546.09,378.7 546.09,845.85 0,467.15 -244.5,845.84 -546.09,845.84 -301.59,0 -546.09,-378.69 -546.09,-845.84 0,-467.15 244.5,-845.85 546.09,-845.85zm7682.02 -9210.12c301.59,0 546.08,378.69 546.08,845.84 0,467.14 -244.49,845.84 -546.08,845.84 -301.6,0 -546.09,-378.7 -546.09,-845.84 0,-467.15 244.49,-845.84 546.09,-845.84zm-2560.69 554.81c301.6,0 546.1,378.7 546.1,845.85 0,467.14 -244.5,845.83 -546.1,845.83 -301.57,0 -546.06,-378.69 -546.06,-845.83 0,-467.15 244.49,-845.85 546.06,-845.85zm-2560.65 554.8c301.57,0 546.08,378.7 546.08,845.84 0,467.16 -244.51,845.85 -546.08,845.85 -301.6,0 -546.09,-378.69 -546.09,-845.85 0,-467.14 244.49,-845.84 546.09,-845.84zm-2560.68 554.83c301.59,0 546.09,378.69 546.09,845.83 0,467.17 -244.5,845.85 -546.09,845.85 -301.59,0 -546.09,-378.68 -546.09,-845.85 0,-467.14 244.5,-845.83 546.09,-845.83zm-2560.67 28875.36c301.59,0 546.08,378.68 546.08,845.84 0,467.14 -244.49,845.82 -546.08,845.82 -301.6,0 -546.08,-378.68 -546.08,-845.82 0,-467.16 244.48,-845.84 546.08,-845.84zm0 -7310.62c301.59,0 546.08,378.69 546.08,845.84 0,467.14 -244.49,845.83 -546.08,845.83 -301.6,0 -546.08,-378.69 -546.08,-845.83 0,-467.15 244.48,-845.84 546.08,-845.84zm0 -6852.4c301.59,0 546.08,378.69 546.08,845.84 0,467.14 -244.49,845.83 -546.08,845.83 -301.6,0 -546.08,-378.69 -546.08,-845.83 0,-467.15 244.48,-845.84 546.08,-845.84zm0 -7020.57c301.59,0 546.08,378.7 546.08,845.84 0,467.14 -244.49,845.84 -546.08,845.84 -301.6,0 -546.08,-378.7 -546.08,-845.84 0,-467.14 244.48,-845.84 546.08,-845.84zm0 -7136.94c301.59,0 546.08,378.69 546.08,845.83 0,467.15 -244.49,845.84 -546.08,845.84 -301.6,0 -546.08,-378.69 -546.08,-845.84 0,-467.14 244.48,-845.83 546.08,-845.83zm10242.69 -10933.37c301.59,0 546.08,378.68 546.08,845.83 0,467.15 -244.49,845.84 -546.08,845.84 -301.6,0 -546.09,-378.69 -546.09,-845.84 0,-467.15 244.49,-845.83 546.09,-845.83zm-2560.69 1007.54c301.6,0 546.1,378.69 546.1,845.83 0,467.15 -244.5,845.83 -546.1,845.83 -301.57,0 -546.06,-378.68 -546.06,-845.83 0,-467.14 244.49,-845.83 546.06,-845.83zm-2560.65 1007.54c301.57,0 546.08,378.71 546.08,845.85 0,467.13 -244.51,845.83 -546.08,845.83 -301.6,0 -546.09,-378.7 -546.09,-845.83 0,-467.14 244.49,-845.85 546.09,-845.85zm-2560.68 1007.56c301.59,0 546.09,378.69 546.09,845.84 0,467.12 -244.5,845.82 -546.09,845.82 -301.59,0 -546.09,-378.7 -546.09,-845.82 0,-467.15 244.5,-845.84 546.09,-845.84zm-2560.67 1007.55c301.59,0 546.08,378.69 546.08,845.84 0,467.14 -244.49,845.83 -546.08,845.83 -301.6,0 -546.08,-378.69 -546.08,-845.83 0,-467.15 244.48,-845.84 546.08,-845.84zm-18762.2 48301.07c301.59,0 546.08,378.69 546.08,845.83 0,467.16 -244.49,845.84 -546.08,845.84 -301.59,0 -546.08,-378.68 -546.08,-845.84 0,-467.14 244.49,-845.83 546.08,-845.83zm-2373.37 -1278.96c301.59,0 546.08,378.69 546.08,845.84 0,467.15 -244.49,845.83 -546.08,845.83 -301.6,0 -546.07,-378.68 -546.07,-845.83 0,-467.15 244.47,-845.84 546.07,-845.84zm-2373.41 -1278.97c301.61,0 546.09,378.68 546.09,845.83 0,467.15 -244.48,845.84 -546.09,845.84 -301.6,0 -546.07,-378.69 -546.07,-845.84 0,-467.15 244.47,-845.83 546.07,-845.83zm-2373.34 -1278.95c301.59,0 546.08,378.68 546.08,845.85 0,467.14 -244.49,845.83 -546.08,845.83 -301.58,0 -546.07,-378.69 -546.07,-845.83 0,-467.17 244.49,-845.85 546.07,-845.85zm7120.12 -6157.22c301.59,0 546.08,378.69 546.08,845.83 0,467.15 -244.49,845.84 -546.08,845.84 -301.59,0 -546.08,-378.69 -546.08,-845.84 0,-467.14 244.49,-845.83 546.08,-845.83zm-2373.37 -895.16c301.59,0 546.08,378.69 546.08,845.84 0,467.14 -244.49,845.84 -546.08,845.84 -301.6,0 -546.07,-378.7 -546.07,-845.84 0,-467.15 244.47,-845.84 546.07,-845.84zm-2373.41 -895.16c301.61,0 546.09,378.68 546.09,845.84 0,467.14 -244.48,845.83 -546.09,845.83 -301.6,0 -546.07,-378.69 -546.07,-845.83 0,-467.16 244.47,-845.84 546.07,-845.84zm-2373.34 -895.15c301.59,0 546.08,378.68 546.08,845.83 0,467.15 -244.49,845.84 -546.08,845.84 -301.58,0 -546.07,-378.69 -546.07,-845.84 0,-467.15 244.49,-845.83 546.07,-845.83zm7120.12 -7427.67c301.59,0 546.08,378.69 546.08,845.84 0,467.14 -244.49,845.83 -546.08,845.83 -301.59,0 -546.08,-378.69 -546.08,-845.83 0,-467.15 244.49,-845.84 546.08,-845.84zm-2413.5 -470.29c301.6,0 546.09,378.69 546.09,845.83 0,467.15 -244.49,845.85 -546.09,845.85 -301.58,0 -546.08,-378.7 -546.08,-845.85 0,-467.14 244.5,-845.83 546.08,-845.83zm-2413.48 -470.29c301.59,0 546.09,378.69 546.09,845.83 0,467.14 -244.5,845.85 -546.09,845.85 -301.6,0 -546.06,-378.71 -546.06,-845.85 0,-467.14 244.46,-845.83 546.06,-845.83zm-2413.5 -470.3c301.6,0 546.08,378.68 546.08,845.82 0,467.14 -244.48,845.85 -546.08,845.85 -301.57,0 -546.07,-378.71 -546.07,-845.85 0,-467.14 244.5,-845.82 546.07,-845.82zm7240.48 -8544.91c301.59,0 546.08,378.7 546.08,845.84 0,467.14 -244.49,845.84 -546.08,845.84 -301.59,0 -546.08,-378.7 -546.08,-845.84 0,-467.14 244.49,-845.84 546.08,-845.84zm-2413.5 -136.68c301.6,0 546.09,378.7 546.09,845.84 0,467.14 -244.49,845.83 -546.09,845.83 -301.58,0 -546.08,-378.69 -546.08,-845.83 0,-467.14 244.5,-845.84 546.08,-845.84zm-2413.48 -136.68c301.59,0 546.09,378.71 546.09,845.85 0,467.16 -244.5,845.84 -546.09,845.84 -301.6,0 -546.06,-378.68 -546.06,-845.84 0,-467.14 244.46,-845.85 546.06,-845.85zm-2413.5 -136.65c301.6,0 546.08,378.68 546.08,845.83 0,467.14 -244.48,845.82 -546.08,845.82 -301.57,0 -546.07,-378.68 -546.07,-845.82 0,-467.15 244.5,-845.83 546.07,-845.83zm7240.48 -9638.51c301.59,0 546.08,378.7 546.08,845.84 0,467.14 -244.49,845.84 -546.08,845.84 -301.59,0 -546.08,-378.7 -546.08,-845.84 0,-467.14 244.49,-845.84 546.08,-845.84zm-2413.5 254.25c301.6,0 546.09,378.68 546.09,845.82 0,467.14 -244.49,845.83 -546.09,845.83 -301.58,0 -546.08,-378.69 -546.08,-845.83 0,-467.14 244.5,-845.82 546.08,-845.82zm-2413.48 254.22c301.59,0 546.09,378.69 546.09,845.83 0,467.13 -244.5,845.82 -546.09,845.82 -301.6,0 -546.06,-378.69 -546.06,-845.82 0,-467.14 244.46,-845.83 546.06,-845.83zm-2413.5 254.23c301.6,0 546.08,378.69 546.08,845.83 0,467.15 -244.48,845.83 -546.08,845.83 -301.57,0 -546.07,-378.68 -546.07,-845.83 0,-467.14 244.5,-845.83 546.07,-845.83zm7240.48 -10745.46c301.59,0 546.08,378.68 546.08,845.84 0,467.14 -244.49,845.83 -546.08,845.83 -301.59,0 -546.08,-378.69 -546.08,-845.83 0,-467.16 244.49,-845.84 546.08,-845.84zm-2413.5 609.89c301.6,0 546.09,378.7 546.09,845.85 0,467.14 -244.49,845.81 -546.09,845.81 -301.58,0 -546.08,-378.67 -546.08,-845.81 0,-467.15 244.5,-845.85 546.08,-845.85zm-2413.48 609.88c301.59,0 546.09,378.68 546.09,845.83 0,467.15 -244.5,845.83 -546.09,845.83 -301.6,0 -546.06,-378.68 -546.06,-845.83 0,-467.15 244.46,-845.83 546.06,-845.83zm-2413.5 609.87c301.6,0 546.08,378.69 546.08,845.85 0,467.15 -244.48,845.82 -546.08,845.82 -301.57,0 -546.07,-378.67 -546.07,-845.82 0,-467.16 244.5,-845.85 546.07,-845.85zm7240.48 -11826.97c301.59,0 546.08,378.69 546.08,845.84 0,467.14 -244.49,845.83 -546.08,845.83 -301.59,0 -546.08,-378.69 -546.08,-845.83 0,-467.15 244.49,-845.84 546.08,-845.84zm-2413.5 1000.78c301.6,0 546.09,378.69 546.09,845.83 0,467.16 -244.49,845.85 -546.09,845.85 -301.58,0 -546.08,-378.69 -546.08,-845.85 0,-467.14 244.5,-845.83 546.08,-845.83zm-2413.48 1000.78c301.59,0 546.09,378.7 546.09,845.85 0,467.13 -244.5,845.81 -546.09,845.81 -301.6,0 -546.06,-378.68 -546.06,-845.81 0,-467.15 244.46,-845.85 546.06,-845.85zm-2413.5 1000.75c301.6,0 546.08,378.71 546.08,845.85 0,467.14 -244.48,845.84 -546.08,845.84 -301.57,0 -546.07,-378.7 -546.07,-845.84 0,-467.14 244.5,-845.85 546.07,-845.85zm-2253.03 51973.48c301.59,0 546.08,378.69 546.08,845.83 0,467.15 -244.49,845.84 -546.08,845.84 -301.6,0 -546.09,-378.69 -546.09,-845.84 0,-467.14 244.49,-845.83 546.09,-845.83zm0 -8458.89c301.59,0 546.08,378.69 546.08,845.83 0,467.15 -244.49,845.84 -546.08,845.84 -301.6,0 -546.09,-378.69 -546.09,-845.84 0,-467.14 244.49,-845.83 546.09,-845.83zm-160.46 -8413.68c301.59,0 546.08,378.69 546.08,845.84 0,467.14 -244.49,845.83 -546.08,845.83 -301.6,0 -546.08,-378.69 -546.08,-845.83 0,-467.15 244.48,-845.84 546.08,-845.84zm0 -8621.31c301.59,0 546.08,378.69 546.08,845.83 0,467.15 -244.49,845.84 -546.08,845.84 -301.6,0 -546.08,-378.69 -546.08,-845.84 0,-467.14 244.48,-845.83 546.08,-845.83zm0 -8484.89c301.59,0 546.08,378.68 546.08,845.84 0,467.14 -244.49,845.82 -546.08,845.82 -301.6,0 -546.08,-378.68 -546.08,-845.82 0,-467.16 244.48,-845.84 546.08,-845.84zm0 -8560.15c301.59,0 546.08,378.68 546.08,845.84 0,467.14 -244.49,845.82 -546.08,845.82 -301.6,0 -546.08,-378.68 -546.08,-845.82 0,-467.16 244.48,-845.84 546.08,-845.84zm0 -8433.77c301.59,0 546.08,378.7 546.08,845.84 0,467.14 -244.49,845.84 -546.08,845.84 -301.6,0 -546.08,-378.7 -546.08,-845.84 0,-467.14 244.48,-845.84 546.08,-845.84zm-19175.6 64709.82c301.59,0 546.07,378.69 546.07,845.83 0,467.15 -244.48,845.84 -546.07,845.84 -301.59,0 -546.08,-378.69 -546.08,-845.84 0,-467.14 244.49,-845.83 546.08,-845.83zm-2691.62 -1429.05c301.58,0 546.06,378.7 546.06,845.84 0,467.15 -244.48,845.83 -546.06,845.83 -301.61,0 -546.1,-378.68 -546.1,-845.83 0,-467.14 244.49,-845.84 546.1,-845.84zm-2691.66 -1429.06c301.59,0 546.08,378.69 546.08,845.83 0,467.15 -244.49,845.84 -546.08,845.84 -301.58,0 -546.07,-378.69 -546.07,-845.84 0,-467.14 244.49,-845.83 546.07,-845.83zm-2691.63 -1429.03c301.6,0 546.09,378.69 546.09,845.84 0,467.14 -244.49,845.83 -546.09,845.83 -301.57,0 -546.07,-378.69 -546.07,-845.83 0,-467.15 244.5,-845.84 546.07,-845.84zm8082.94 -6764.03c301.6,0 546.08,378.69 546.08,845.84 0,467.14 -244.48,845.83 -546.08,845.83 -301.59,0 -546.08,-378.69 -546.08,-845.83 0,-467.15 244.49,-845.84 546.08,-845.84zm-2693.63 -993.88c301.59,0 546.06,378.69 546.06,845.83 0,467.16 -244.47,845.85 -546.06,845.85 -301.6,0 -546.09,-378.69 -546.09,-845.85 0,-467.14 244.49,-845.83 546.09,-845.83zm-2693.64 -993.88c301.58,0 546.06,378.7 546.06,845.85 0,467.15 -244.48,845.83 -546.06,845.83 -301.6,0 -546.09,-378.68 -546.09,-845.83 0,-467.15 244.49,-845.85 546.09,-845.85zm-2693.66 -993.9c301.59,0 546.09,378.68 546.09,845.83 0,467.16 -244.5,845.84 -546.09,845.84 -301.58,0 -546.07,-378.68 -546.07,-845.84 0,-467.15 244.49,-845.83 546.07,-845.83zm8087.77 -8072.02c301.59,0 546.08,378.69 546.08,845.83 0,467.15 -244.49,845.84 -546.08,845.84 -301.58,0 -546.07,-378.69 -546.07,-845.84 0,-467.14 244.49,-845.83 546.07,-845.83zm-2627.44 -662.47c301.6,0 546.09,378.68 546.09,845.82 0,467.15 -244.49,845.85 -546.09,845.85 -301.59,0 -546.08,-378.7 -546.08,-845.85 0,-467.14 244.49,-845.82 546.08,-845.82zm-2627.4 -662.46c301.57,0 546.06,378.69 546.06,845.85 0,467.14 -244.49,845.82 -546.06,845.82 -301.62,0 -546.09,-378.68 -546.09,-845.82 0,-467.16 244.47,-845.85 546.09,-845.85zm-2627.49 -662.45c301.6,0 546.09,378.68 546.09,845.82 0,467.14 -244.49,845.85 -546.09,845.85 -301.59,0 -546.09,-378.71 -546.09,-845.85 0,-467.14 244.5,-845.82 546.09,-845.82zm7880.01 -9069.21c301.59,0 546.08,378.7 546.08,845.84 0,467.14 -244.49,845.84 -546.08,845.84 -301.59,0 -546.08,-378.7 -546.08,-845.84 0,-467.14 244.49,-845.84 546.08,-845.84zm-2690.19 -312c301.61,0 546.09,378.69 546.09,845.84 0,467.15 -244.48,845.83 -546.09,845.83 -301.58,0 -546.07,-378.68 -546.07,-845.83 0,-467.15 244.49,-845.84 546.07,-845.84zm-2690.18 -312c301.59,0 546.09,378.69 546.09,845.84 0,467.14 -244.5,845.83 -546.09,845.83 -301.59,0 -546.08,-378.69 -546.08,-845.83 0,-467.15 244.49,-845.84 546.08,-845.84zm-2690.2 -312.02c301.6,0 546.09,378.7 546.09,845.83 0,467.15 -244.49,845.84 -546.09,845.84 -301.59,0 -546.08,-378.69 -546.08,-845.84 0,-467.13 244.49,-845.83 546.08,-845.83zm8082.96 -10120.26c301.58,0 546.07,378.69 546.07,845.83 0,467.15 -244.49,845.84 -546.07,845.84 -301.59,0 -546.08,-378.69 -546.08,-845.84 0,-467.14 244.49,-845.83 546.08,-845.83zm-2693.31 71.49c301.59,0 546.09,378.68 546.09,845.83 0,467.15 -244.5,845.83 -546.09,845.83 -301.59,0 -546.07,-378.68 -546.07,-845.83 0,-467.15 244.48,-845.83 546.07,-845.83zm-2693.25 71.47c301.6,0 546.06,378.69 546.06,845.82 0,467.16 -244.46,845.85 -546.06,845.85 -301.59,0 -546.08,-378.69 -546.08,-845.85 0,-467.13 244.49,-845.82 546.08,-845.82zm-2693.31 71.49c301.62,0 546.09,378.69 546.09,845.83 0,467.14 -244.47,845.85 -546.09,845.85 -301.57,0 -546.06,-378.71 -546.06,-845.85 0,-467.14 244.49,-845.83 546.06,-845.83zm8078.1 -11271.87c301.59,0 546.07,378.69 546.07,845.84 0,467.14 -244.48,845.83 -546.07,845.83 -301.59,0 -546.09,-378.69 -546.09,-845.83 0,-467.15 244.5,-845.84 546.09,-845.84zm-2692.84 415.62c301.58,0 546.07,378.71 546.07,845.85 0,467.14 -244.49,845.83 -546.07,845.83 -301.61,0 -546.07,-378.69 -546.07,-845.83 0,-467.14 244.46,-845.85 546.07,-845.85zm-2692.84 415.63c301.58,0 546.07,378.69 546.07,845.84 0,467.14 -244.49,845.84 -546.07,845.84 -301.59,0 -546.08,-378.7 -546.08,-845.84 0,-467.15 244.49,-845.84 546.08,-845.84zm-2692.85 415.66c301.59,0 546.09,378.71 546.09,845.84 0,467.15 -244.5,845.84 -546.09,845.84 -301.59,0 -546.09,-378.69 -546.09,-845.84 0,-467.13 244.5,-845.84 546.09,-845.84zm8095.06 -12309.25c301.6,0 546.09,378.69 546.09,845.84 0,467.14 -244.49,845.84 -546.09,845.84 -301.58,0 -546.07,-378.7 -546.07,-845.84 0,-467.15 244.49,-845.84 546.07,-845.84zm-2696.96 789.2c301.58,0 546.07,378.69 546.07,845.85 0,467.14 -244.49,845.83 -546.07,845.83 -301.62,0 -546.09,-378.69 -546.09,-845.83 0,-467.16 244.47,-845.85 546.09,-845.85zm-2697 789.22c301.59,0 546.09,378.7 546.09,845.84 0,467.14 -244.5,845.84 -546.09,845.84 -301.58,0 -546.09,-378.7 -546.09,-845.84 0,-467.14 244.51,-845.84 546.09,-845.84zm-2696.96 789.22c301.59,0 546.09,378.69 546.09,845.82 0,467.17 -244.5,845.85 -546.09,845.85 -301.6,0 -546.08,-378.68 -546.08,-845.85 0,-467.13 244.48,-845.82 546.08,-845.82zm-2715.32 58253.63c301.6,0 546.09,378.69 546.09,845.84 0,467.14 -244.49,845.84 -546.09,845.84 -301.58,0 -546.07,-378.7 -546.07,-845.84 0,-467.15 244.49,-845.84 546.07,-845.84zm0 -9310.49c301.6,0 546.09,378.69 546.09,845.84 0,467.14 -244.49,845.83 -546.09,845.83 -301.58,0 -546.07,-378.69 -546.07,-845.83 0,-467.15 244.49,-845.84 546.07,-845.84zm271.66 -9728.01c301.59,0 546.08,378.69 546.08,845.83 0,467.16 -244.49,845.84 -546.08,845.84 -301.59,0 -546.09,-378.68 -546.09,-845.84 0,-467.14 244.5,-845.83 546.09,-845.83zm-253.31 -9654.76c301.58,0 546.07,378.69 546.07,845.84 0,467.15 -244.49,845.83 -546.07,845.83 -301.6,0 -546.09,-378.68 -546.09,-845.83 0,-467.15 244.49,-845.84 546.09,-845.84zm0 -9522.31c301.58,0 546.07,378.69 546.07,845.84 0,467.14 -244.49,845.83 -546.07,845.83 -301.6,0 -546.09,-378.69 -546.09,-845.83 0,-467.15 244.49,-845.84 546.09,-845.84zm0 -9680.82c301.58,0 546.07,378.69 546.07,845.84 0,467.14 -244.49,845.83 -546.07,845.83 -301.6,0 -546.09,-378.69 -546.09,-845.83 0,-467.15 244.49,-845.84 546.09,-845.84zm0 -9568.03c301.58,0 546.07,378.7 546.07,845.84 0,467.14 -244.49,845.84 -546.07,845.84 -301.6,0 -546.09,-378.7 -546.09,-845.84 0,-467.14 244.49,-845.84 546.09,-845.84zm10766.27 -14207.24c301.58,0 546.07,378.68 546.07,845.84 0,467.14 -244.49,845.82 -546.07,845.82 -301.59,0 -546.08,-378.68 -546.08,-845.82 0,-467.16 244.49,-845.84 546.08,-845.84zm-2691.57 1158.89c301.58,0 546.07,378.69 546.07,845.83 0,467.15 -244.49,845.84 -546.07,845.84 -301.59,0 -546.08,-378.69 -546.08,-845.84 0,-467.14 244.49,-845.83 546.08,-845.83zm-2691.6 1158.89c301.61,0 546.09,378.71 546.09,845.85 0,467.14 -244.48,845.82 -546.09,845.82 -301.58,0 -546.06,-378.68 -546.06,-845.82 0,-467.14 244.48,-845.85 546.06,-845.85zm-2691.55 1158.88c301.61,0 546.09,378.71 546.09,845.85 0,467.13 -244.48,845.83 -546.09,845.83 -301.58,0 -546.07,-378.7 -546.07,-845.83 0,-467.14 244.49,-845.85 546.07,-845.85zm-2691.55 1158.91c301.58,0 546.07,378.69 546.07,845.84 0,467.15 -244.49,845.83 -546.07,845.83 -301.6,0 -546.09,-378.68 -546.09,-845.83 0,-467.15 244.49,-845.84 546.09,-845.84zm86021.14 55923.41c391.06,-120.76 614.98,366.82 223.92,487.59l-9444.6 2932.5c-391.06,120.76 -614.98,-366.82 -223.92,-487.59l9444.6 -2932.5zm-29058.16 9022.37c391.06,-120.75 614.98,366.83 223.92,487.6l-8491.74 2636.62c-391.07,120.75 -614.99,-366.83 -223.92,-487.6l8491.74 -2636.62zm-28607.33 8882.39c391.06,-120.76 614.98,366.82 223.92,487.59l-9983.53 3099.82c-391.06,120.76 -614.98,-366.82 -223.92,-487.59l9983.53 -3099.82zm57889.41 -59566.14c391.06,120.76 167.14,608.35 -223.92,487.59l-9444.6 -2932.49c-391.06,-120.77 -167.14,-608.35 223.92,-487.59l9444.6 2932.49zm-29058.16 -9022.36c391.06,120.77 167.14,608.35 -223.92,487.59l-8491.74 -2636.64c-391.07,-120.77 -167.15,-608.35 223.92,-487.59l8491.74 2636.64zm-28607.33 -8882.38c391.06,120.77 167.14,608.35 -223.92,487.59l-9983.53 -3099.83c-391.06,-120.76 -167.14,-608.35 223.92,-487.59l9983.53 3099.83zm55831.91 22883.88l11751.96 -6681.09c2412.47,-1371.47 4030.49,-344.72 4030.49,1931.76l0 40966.12c0,2938.74 -2358.86,2965.15 -4725.99,1350.27l-11101.25 -7573.37c-1137.94,-776.36 -2305.57,-1442.86 -2305.57,-2799.73l0 -24717.21c0,-1415.69 1148.74,-1793.62 2350.36,-2476.75zm12473.46 -5824.22l-11751.97 6681.08c-727.72,413.71 -1798.02,791.39 -1798.02,1619.89l0 24717.21c0,880.52 1090.65,1486.82 1842.81,2000l11101.24 7573.37c1522.57,1038.68 2641.11,1402.69 2641.11,-550.54l0 -40966.12c0,-1419.31 -483.76,-1956.87 -2035.17,-1074.89zm-39349.34 -3877.5l10694.2 -6079.73c2346.64,-1334.06 4453.28,-791.15 4453.28,1691.41l0 59003.3c0,2674.86 -2465.04,3536.85 -4707.9,2006.75l-11119.36 -7585.7c-2115.13,-1442.98 -2305.56,-1717.87 -2305.56,-4001.39l0 -40782.49c0,-2668.35 476.4,-2825.85 2985.34,-4252.15zm11415.69 -5222.86l-10694.19 6079.73c-2006.56,1140.7 -2433.01,1242.67 -2433.01,3395.28l0 40782.49c0,1954.8 31.26,1965.81 1842.79,3201.66l11119.36 7585.69c1320.71,901.02 2623.02,576.42 2623.02,-1207.01l0 -59003.3c0,-1610.95 -963.49,-1684.15 -2457.97,-834.54zm-40567.04 -3756.85l12294.63 -6989.57c1667.13,-896.96 3530.3,333.29 3487.83,2240.26l0 78328.78c0,2455.68 -2333.59,2982.42 -4510.99,1496.95l-11316.26 -7720.06c-1131.1,-771.68 -2305.57,-1739.69 -2305.57,-3676.96l0 -61202.65c0,-1415.66 1148.7,-1793.65 2350.36,-2476.75zm12554.17 -5870.08l-11832.68 6726.94c-727.74,413.7 -1798.03,791.38 -1798.03,1619.89l0 61202.65c0,1541.69 1058.94,2342.42 1842.81,2877.22l11316.26 7720.06c1296.59,884.55 2426.1,883.61 2426.1,-697.21l0 -78328.78c0,-978.07 -829.1,-1760.55 -1954.46,-1120.77zm-30452.79 -8811.53l-10396.33 5910.4c-2210.39,1256.53 -2303.49,1382.59 -2303.49,3266.97l0 77148.95 -2.49 0c-0.23,2022.01 181.57,3117.51 2104.48,4429.34l10476.15 7146.94c1269.4,865.99 3007.02,1705.37 3007.02,-300.9l0 -96623.44c0,-2191.25 -985.54,-2058.31 -2885.34,-978.26z"/></g><text x="0" y="105848.32" fill="#000000" font-size="5px" font-weight="bold" font-family="'Helvetica Neue', Helvetica, Arial-Unicode, Arial, Sans-serif">Created by Oleksandr Panasovskyi</text><text x="0" y="105853.32" fill="#000000" font-size="5px" font-weight="bold" font-family="'Helvetica Neue', Helvetica, Arial-Unicode, Arial, Sans-serif">from the Noun Project</text></svg>