<?xml version="1.0" standalone="no"?>
<!DOCTYPE svg PUBLIC "-//W3C//DTD SVG 20010904//EN"
 "http://www.w3.org/TR/2001/REC-SVG-20010904/DTD/svg10.dtd">
<svg version="1.0" xmlns="http://www.w3.org/2000/svg"
 width="1120.000000pt" height="304.000000pt" viewBox="0 0 1120.000000 304.000000"
 preserveAspectRatio="xMidYMid meet">

<g transform="translate(0.000000,304.000000) scale(0.100000,-0.100000)"
fill="#000000" stroke="none">
<path d="M762 2390 c-48 -11 -98 -63 -111 -116 -13 -52 -14 -492 -1 -548 11
-50 65 -105 113 -116 85 -19 171 37 188 121 11 59 11 494 0 543 -10 39 -61
102 -90 110 -43 11 -69 13 -99 6z"/>
<path d="M1242 2390 c-48 -11 -98 -63 -111 -116 -14 -53 -15 -971 -1 -1028 11
-50 65 -105 113 -116 85 -19 171 37 188 121 11 59 11 974 0 1023 -10 39 -61
102 -90 110 -43 11 -69 13 -99 6z"/>
<path d="M1721 2390 c-18 -5 -49 -23 -68 -42 -62 -62 -62 -153 0 -215 109
-110 288 -8 256 145 -7 35 -61 99 -88 106 -43 11 -69 13 -100 6z"/>
<path d="M2202 2390 c-48 -11 -98 -63 -111 -116 -14 -53 -15 -1450 -1 -1508
11 -50 65 -105 113 -116 85 -19 171 37 188 121 11 59 11 1454 0 1503 -10 39
-61 102 -90 110 -43 11 -69 13 -99 6z"/>
<path d="M6231 2092 c-50 -25 -76 -65 -75 -116 2 -74 54 -126 129 -126 137 0
175 193 49 246 -44 18 -62 18 -103 -4z"/>
<path d="M8453 2095 c-43 -19 -73 -69 -73 -124 0 -37 6 -49 39 -82 33 -33 45
-39 82 -39 147 0 188 190 53 246 -41 17 -60 17 -101 -1z"/>
<path d="M2880 1520 l0 -560 106 0 107 0 -5 353 c-3 193 -9 360 -13 371 -6 13
-4 17 4 15 7 -3 76 -170 154 -372 l142 -367 81 0 81 0 139 361 c76 198 142
365 146 372 14 23 16 0 8 -108 -5 -60 -9 -226 -9 -367 l-1 -258 105 0 105 0 0
560 0 560 -134 0 -135 0 -32 -83 c-17 -46 -84 -223 -148 -393 -64 -170 -121
-308 -126 -306 -6 1 -76 177 -156 390 l-147 387 -136 3 -136 3 0 -561z"/>
<path d="M5770 1869 l0 -210 -32 34 c-59 62 -111 82 -213 82 -80 0 -97 -3
-155 -31 -81 -39 -142 -99 -180 -178 -107 -220 -22 -502 178 -594 40 -18 79
-27 133 -30 97 -6 161 14 223 69 l46 41 0 -46 0 -46 100 0 100 0 0 560 0 560
-100 0 -100 0 0 -211z m-105 -310 c111 -80 136 -236 55 -348 -76 -105 -240
-115 -326 -19 -103 112 -72 311 57 377 62 31 162 26 214 -10z"/>
<path d="M7490 1520 l0 -560 105 0 105 0 0 205 0 205 98 0 c130 0 204 14 279
50 76 37 135 102 164 179 29 76 24 214 -10 279 -51 99 -143 166 -259 191 -30
6 -148 11 -267 11 l-215 0 0 -560z m485 340 c106 -52 112 -189 11 -264 -24
-18 -45 -21 -157 -24 l-129 -4 0 156 0 156 117 0 c96 0 124 -3 158 -20z"/>
<path d="M1722 1910 c-48 -11 -98 -63 -111 -116 -14 -53 -15 -971 -1 -1028 11
-50 65 -105 113 -116 85 -19 171 37 188 121 11 59 11 974 0 1023 -10 39 -61
102 -90 110 -43 11 -69 13 -99 6z"/>
<path d="M4498 1761 c-75 -25 -116 -51 -172 -111 -149 -160 -152 -417 -5 -583
27 -31 66 -59 117 -84 75 -37 78 -38 192 -38 124 0 167 12 253 72 33 23 107
110 107 127 0 3 -35 23 -78 45 l-78 39 -29 -35 c-59 -74 -192 -98 -284 -50
-47 24 -93 85 -107 140 l-6 27 301 0 301 0 0 68 c-1 129 -36 219 -117 299 -67
66 -138 94 -253 99 -65 3 -99 0 -142 -15z m177 -152 c22 -6 55 -22 73 -36 34
-26 77 -97 67 -113 -6 -10 -395 -15 -395 -5 0 3 6 20 14 38 19 43 75 96 122
112 48 17 68 18 119 4z"/>
<path d="M6786 1770 c-62 -16 -138 -58 -183 -102 l-42 -41 61 -48 c33 -27 62
-49 64 -49 2 0 24 15 48 34 78 59 191 70 263 26 42 -25 64 -60 70 -111 l6 -42
-34 8 c-127 28 -209 32 -284 11 -142 -37 -214 -124 -215 -257 0 -120 75 -218
193 -250 101 -27 229 2 300 69 l27 26 0 -42 0 -42 106 0 106 0 -4 293 c-3 281
-4 294 -27 345 -29 65 -103 134 -169 157 -56 20 -230 29 -286 15z m238 -466
c47 -16 48 -17 41 -53 -8 -47 -48 -107 -87 -131 -47 -28 -116 -35 -166 -14
-47 18 -72 54 -72 104 0 42 15 67 53 90 41 25 162 27 231 4z"/>
<path d="M9134 1759 c-28 -11 -67 -35 -87 -54 -20 -19 -38 -35 -42 -35 -3 0
-5 20 -5 45 l0 45 -100 0 -100 0 0 -570 0 -570 100 0 100 0 0 216 0 216 46
-41 c62 -55 126 -75 223 -69 54 3 93 12 133 30 221 102 295 425 148 646 -91
135 -272 197 -416 141z m208 -204 c62 -44 93 -111 93 -200 -1 -73 -16 -117
-59 -163 -83 -93 -246 -86 -321 12 -29 38 -55 112 -55 156 0 53 30 127 67 165
51 53 86 66 165 62 56 -2 74 -8 110 -32z"/>
<path d="M10067 1770 c-135 -34 -246 -143 -289 -283 -27 -89 -22 -214 12 -302
32 -84 131 -183 215 -215 112 -43 271 -37 369 12 46 24 124 95 148 135 l17 29
-78 39 -79 38 -37 -38 c-49 -48 -93 -66 -164 -66 -114 -1 -191 56 -222 163
l-8 28 299 0 298 0 7 38 c16 95 -39 254 -111 326 -21 21 -67 52 -102 68 -52
25 -79 31 -150 34 -48 2 -104 -1 -125 -6z m203 -181 c45 -26 78 -67 86 -109
l7 -30 -197 0 c-184 0 -196 1 -196 18 0 24 50 93 82 114 64 42 151 45 218 7z"/>
<path d="M6180 1360 l0 -400 100 0 100 0 0 400 0 400 -100 0 -100 0 0 -400z"/>
<path d="M8410 1360 l0 -400 100 0 100 0 0 400 0 400 -100 0 -100 0 0 -400z"/>
<path d="M762 1430 c-48 -11 -98 -63 -111 -116 -13 -52 -14 -492 -1 -548 11
-50 65 -105 113 -116 85 -19 171 37 188 121 11 59 11 494 0 543 -10 39 -61
102 -90 110 -43 11 -69 13 -99 6z"/>
<path d="M1241 950 c-18 -5 -49 -23 -68 -42 -62 -62 -62 -153 0 -215 109 -110
288 -8 256 145 -7 35 -61 99 -88 106 -43 11 -69 13 -100 6z"/>
</g>
</svg>
