<svg xmlns="http://www.w3.org/2000/svg" xmlns:xlink="http://www.w3.org/1999/xlink" xml:space="preserve" version="1.1" style="shape-rendering:geometricPrecision;text-rendering:geometricPrecision;image-rendering:optimizeQuality;" viewBox="0 0 178 432.5" x="0px" y="0px" fill-rule="evenodd" clip-rule="evenodd"><defs><style type="text/css">
   
    .fil0 {fill:black}
   
  </style></defs><g><path class="fil0" d="M73 337c-8,14 -23,11 -20,-7 7,-41 20,-87 24,-127 -20,-1 -43,0 -63,0 -14,0 -17,-7 -11,-18 34,-58 70,-118 102,-176 7,-14 22,-11 19,7 -7,39 -19,88 -23,126 20,2 42,0 63,0 13,0 17,7 10,19 -33,58 -69,117 -101,176z"/></g><text x="0" y="361" fill="#000000" font-size="5px" font-weight="bold" font-family="'Helvetica Neue', Helvetica, Arial-Unicode, Arial, Sans-serif">Created by Anesckha</text><text x="0" y="366" fill="#000000" font-size="5px" font-weight="bold" font-family="'Helvetica Neue', Helvetica, Arial-Unicode, Arial, Sans-serif">from the Noun Project</text></svg>